# xmcd
#
# Track frame offsets: 
#        150
#        20292
#        35954
#        54284
#        70624
#        88849
#        103959
#        122407
#        144212
#        160582
#
# Disc length: 2436 seconds
#
# Revision: 0
# Processed by: cddbd v1.5PL3 Copyright (c) Steve Scherf et al.
# Submitted via: ExactAudioCopy v0.95a3
#
DISCID=7b09820a
DTITLE=Eric Clapton - There's One In Every Crowd
DYEAR=1900
DGENRE=
TTITLE0=We've Been Told Jesus Coming Soon
TTITLE1=Swing Low Sweet Chariot
TTITLE2=Little Rachel
TTITLE3=Don't Blame Me
TTITLE4=The Sky Is Crying
TTITLE5=Singin' The Blues
TTITLE6=Better Make It Through Today
TTITLE7=Pretty Blue Eyes
TTITLE8=High
TTITLE9=Opposites
EXTD=
EXTT0=
EXTT1=
EXTT2=
EXTT3=
EXTT4=
EXTT5=
EXTT6=
EXTT7=
EXTT8=
EXTT9=
PLAYORDER=
